HIERARCHY
ROOT pelvis
{
  OFFSET 0 100 0
  CHANNELS 6 Xposition Yposition Zposition Zrotation Xrotation Yrotation
  JOINT pelvis_right_femur
  {
    OFFSET -10.78128 -3.44521 -0.5502486
    CHANNELS 3 Zrotation Xrotation Yrotation
    JOINT right_femur_tibia
    {
      OFFSET -0.8047443 -44.0398 -0.1307829
      CHANNELS 3 Zrotation Xrotation Yrotation
      JOINT right_tibia_foot
      {
        OFFSET 3.006224 -47.83518 -5
        CHANNELS 3 Zrotation Xrotation Yrotation
        End Site
        {
          OFFSET 0 -5 15
        }
      }
    }
  }
  JOINT pelvis_left_femur
  {
    OFFSET 10.78128 -3.44521 -0.5502486
    CHANNELS 3 Zrotation Xrotation Yrotation
    JOINT left_femur_tibia
    {
      OFFSET 0.8047443 -44.0398 -0.1307829
      CHANNELS 3 Zrotation Xrotation Yrotation
      JOINT left_tibia_foot
      {
        OFFSET -4.370144 -48.10324 -4.275266
        CHANNELS 3 Zrotation Xrotation Yrotation
        End Site
        {
          OFFSET 0 -5 15
        }
      }
    }
  }
  JOINT pelvis_spine1
  {
    OFFSET 0 6.468898 -3.129235
    CHANNELS 3 Zrotation Xrotation Yrotation
    JOINT spine1
    {
      OFFSET 0 23.15396 4.99043
      CHANNELS 3 Zrotation Xrotation Yrotation
      JOINT spine2
      {
        OFFSET 0 20.79997 -5.064912
        CHANNELS 3 Zrotation Xrotation Yrotation
        JOINT neck
        {
          OFFSET 0 14.38658 9.616178
          CHANNELS 3 Zrotation Xrotation Yrotation
          End Site
          {
            OFFSET 0 20 0
          }
        }
      }
      JOINT right_manubrium
      {
        OFFSET -5.722621 16.35077 3.967754
        CHANNELS 3 Zrotation Xrotation Yrotation
        JOINT right_clavicle
        {
          OFFSET -13.16364 1.694482 -4.693211
          CHANNELS 3 Zrotation Xrotation Yrotation
          JOINT right_humerus
          {
            OFFSET -28.5034 -0.3100689 -2.792744
            CHANNELS 3 Zrotation Xrotation Yrotation
            JOINT right_radius
            {
              OFFSET -25.15693 0.02248979 -1.271978
              CHANNELS 3 Zrotation Xrotation Yrotation
              End Site
              {
                OFFSET -15 0 0
              }
            }
          }
        }
      }
      JOINT left_manubrium
      {
        OFFSET 5.722621 16.35077 3.967754
        CHANNELS 3 Zrotation Xrotation Yrotation
        JOINT left_clavicle
        {
          OFFSET 13.16364 1.694482 -4.693211
          CHANNELS 3 Zrotation Xrotation Yrotation
          JOINT left_humerus
          {
            OFFSET 29.39168 -1.063119 -2.237045
            CHANNELS 3 Zrotation Xrotation Yrotation
            JOINT left_radius
            {
              OFFSET 24.59957 -0.9528479 0.9047498
              CHANNELS 3 Zrotation Xrotation Yrotation
              End Site
              {
                OFFSET 15 -0 -0
              }
            }
          }
        }
      }
    }
  }
}
MOTION
Frames: 9
Frame Time: 0.0416666666667
-720.2886 99.33166 300.3364 14.42621 5.388397 110.6854 3.315569 16.13512 -3.79088 -0 31.81365 -0 -16.14531 1.447545 3.479769 -0.8964845 -5.368049 -13.42705 -0 15.16817 -0 -5.935185 -9.267212 21.28564 1.123803 -1.632534 8.852719 -0.003100817 14.95881 -6.007011 0.4214697 19.758 2.606391 1.641257 -17.49476 3.123643 -2.090231 -29.64106 12.62865 89.62326 23.38367 -10.99656 -0 0 26.17148 -18.62044 11.03362 9.926159 1.693045 -23.19175 -7.727119 -92.12188 8.277782 36.1279 0 0 -10.88051 9.590159 12.8806 1.267438
-714.6773 99.34003 297.2391 14.48534 5.224281 110.0461 3.315569 16.13512 -3.79088 -0 31.81365 -0 -16.14531 1.447544 3.479769 -0.8964844 -5.368049 -13.42705 -0 15.16817 -0 -5.935185 -9.267212 21.28564 1.123803 -1.632534 8.852719 -0.003100927 14.9588 -6.007011 0.4214696 19.758 2.606391 1.641257 -17.49476 3.123643 -2.090231 -29.64106 12.62865 89.62326 23.38367 -10.99656 -0 0 26.17148 -18.62044 11.03362 9.926158 1.693045 -23.19175 -7.727119 -92.12188 8.277782 36.1279 0 0 -10.88051 9.590159 12.8806 1.267437
-709.0309 99.34841 294.2063 14.54261 5.059518 109.4071 3.31557 16.13512 -3.79088 -0 31.81365 -0 -16.14531 1.447544 3.479769 -0.8964841 -5.368049 -13.42705 -0 15.16817 -0 -5.935185 -9.267212 21.28564 1.123803 -1.632534 8.852719 -0.003101014 14.9588 -6.007011 0.4214695 19.758 2.606391 1.641258 -17.49476 3.123643 -2.090231 -29.64106 12.62865 89.62326 23.38367 -10.99656 -0 0 26.17148 -18.62044 11.03362 9.926158 1.693045 -23.19175 -7.727119 -92.12188 8.277782 36.1279 0 0 -10.88051 9.59016 12.88059 1.267437
-703.35 99.35679 291.2385 14.59801 4.894129 108.7684 3.31557 16.13512 -3.790879 -0 31.81365 -0 -16.14531 1.447543 3.479768 -0.8964839 -5.368049 -13.42705 -0 15.16817 -0 -5.935184 -9.267212 21.28564 1.123803 -1.632534 8.852719 -0.003101075 14.9588 -6.007011 0.4214694 19.758 2.606391 1.641258 -17.49476 3.123643 -2.090231 -29.64106 12.62865 89.62326 23.38367 -10.99656 -0 0 26.17148 -18.62044 11.03362 9.926158 1.693045 -23.19175 -7.727119 -92.12188 8.277782 36.1279 0 0 -10.88051 9.59016 12.88059 1.267437
-697.6355 99.36516 288.3361 14.65156 4.728135 108.13 3.31557 16.13512 -3.790879 -0 31.81365 -0 -16.14531 1.447542 3.479768 -0.8964836 -5.36805 -13.42705 -0 15.16817 -0 -5.935184 -9.267211 21.28564 1.123803 -1.632534 8.852719 -0.003101108 14.9588 -6.007011 0.4214694 19.758 2.606391 1.641258 -17.49476 3.123643 -2.090231 -29.64106 12.62865 89.62326 23.38367 -10.99656 -0 0 26.17148 -18.62044 11.03362 9.926158 1.693045 -23.19175 -7.727119 -92.12188 8.277782 36.1279 0 0 -10.88051 9.59016 12.88059 1.267437
-691.888 99.37354 285.4995 14.70323 4.561557 107.4919 3.31557 16.13512 -3.790879 -0 31.81365 -0 -16.14531 1.44754 3.479767 -0.8964833 -5.368051 -13.42705 -0 15.16817 -0 -5.935184 -9.267211 21.28564 1.123803 -1.632534 8.852719 -0.003101116 14.9588 -6.007011 0.4214694 19.758 2.606391 1.641258 -17.49476 3.123643 -2.090231 -29.64106 12.62865 89.62326 23.38367 -10.99656 -0 0 26.17148 -18.62044 11.03362 9.926158 1.693045 -23.19175 -7.727119 -92.12188 8.277782 36.1279 0 0 -10.88051 9.59016 12.88059 1.267437
-686.1084 99.38192 282.729 14.75302 4.394416 106.8542 3.31557 16.13512 -3.790878 -0 31.81365 -0 -16.14531 1.447539 3.479767 -0.8964829 -5.368052 -13.42705 -0 15.16817 -0 -5.935183 -9.26721 21.28564 1.123803 -1.632534 8.852719 -0.003101099 14.9588 -6.007011 0.4214695 19.758 2.606391 1.641257 -17.49476 3.123643 -2.090231 -29.64106 12.62865 89.62326 23.38367 -10.99656 -0 0 26.17148 -18.62044 11.03362 9.926158 1.693045 -23.19175 -7.727119 -92.12188 8.277782 36.1279 0 0 -10.88051 9.590159 12.88059 1.267438
-680.2973 99.39029 280.0249 14.80094 4.226733 106.2167 3.315571 16.13512 -3.790878 -0 31.81365 -0 -16.14531 1.447537 3.479766 -0.8964826 -5.368053 -13.42705 -0 15.16817 -0 -5.935183 -9.267209 21.28564 1.123803 -1.632534 8.852719 -0.00310106 14.9588 -6.007011 0.4214695 19.758 2.606391 1.641257 -17.49476 3.123643 -2.090231 -29.64106 12.62865 89.62326 23.38367 -10.99656 -0 0 26.17148 -18.62044 11.03362 9.926159 1.693045 -23.19175 -7.727119 -92.12188 8.277782 36.1279 0 0 -10.88051 9.590159 12.88059 1.267438
-674.4556 99.39867 277.3878 14.84697 4.058529 105.5795 3.315571 16.13512 -3.790877 -0 31.81364 -0 -16.14531 1.447536 3.479766 -0.8964823 -5.368054 -13.42705 -0 15.16817 -0 -5.935183 -9.267208 21.28564 1.123803 -1.632534 8.852719 -0.003101002 14.9588 -6.007011 0.4214696 19.758 2.606391 1.641257 -17.49476 3.123643 -2.090231 -29.64106 12.62865 89.62326 23.38367 -10.99656 -0 0 26.17148 -18.62044 11.03362 9.926159 1.693045 -23.19175 -7.727119 -92.12188 8.277782 36.1279 0 0 -10.88051 9.590159 12.88059 1.267439
